# xmcd
#
# Track frame offsets: 
#        150
#        16853
#        33887
#        50561
#        66005
#        81374
#        96535
#        115561
#        132880
#        151289
#        169041
#        184511
#        200104
#
# Disc length: 2940 seconds
#
# Revision: 0
# Processed by: cddbd v1.5.2PL0 Copyright (c) Steve Scherf et al.
# Submitted via: ExactAudioCopy v0.95b4
#
DISCID=a60b7a0d
DTITLE=Granger Smith - Livin' Like A Lonestar
DYEAR=2006
DGENRE=
TTITLE0=Livin' Like A Lonestar
TTITLE1=Amy's 18 Again
TTITLE2=Colorblind
TTITLE3=Baby Take Me
TTITLE4=So Much About California
TTITLE5=Just Add Tequila
TTITLE6=What Would Jesse James Say
TTITLE7=Dream Girl
TTITLE8=Whatever Happened To
TTITLE9=A Little You
TTITLE10=I'm All About That
TTITLE11=Runaway Heart
TTITLE12=Goodnight Moon
EXTD=
EXTT0=
EXTT1=
EXTT2=
EXTT3=
EXTT4=
EXTT5=
EXTT6=
EXTT7=
EXTT8=
EXTT9=
EXTT10=
EXTT11=
EXTT12=
PLAYORDER=
